HIERARCHY
ROOT Hips
{
  OFFSET -10.272 24.508 -245.592
  CHANNELS 6 Xposition Yposition Zposition Zrotation Xrotation Yrotation
  JOINT LeftUpLeg
  {
    OFFSET 6.263 -6.038 1.478
    CHANNELS 6 Xposition Yposition Zposition Zrotation Xrotation Yrotation
    JOINT LeftLeg
    {
      OFFSET -0.000 -50.053 0.000
      CHANNELS 6 Xposition Yposition Zposition Zrotation Xrotation Yrotation
      JOINT LeftFoot
      {
        OFFSET 0.000 -37.940 -0.000
        CHANNELS 6 Xposition Yposition Zposition Zrotation Xrotation Yrotation
        End Site
        {
          OFFSET 0.000 -7.935 4.582
        }
      }
    }
  }
  JOINT RightUpLeg
  {
    OFFSET -6.451 -6.175 3.384
    CHANNELS 6 Xposition Yposition Zposition Zrotation Xrotation Yrotation
    JOINT RightLeg
    {
      OFFSET -0.000 -51.751 0.000
      CHANNELS 6 Xposition Yposition Zposition Zrotation Xrotation Yrotation
      JOINT RightFoot
      {
        OFFSET 0.000 -36.516 -0.000
        CHANNELS 6 Xposition Yposition Zposition Zrotation Xrotation Yrotation
        End Site
        {
          OFFSET 0.000 -8.206 4.738
        }
      }
    }
  }
  JOINT Spine
  {
    OFFSET 0.000 5.708 -5.708
    CHANNELS 6 Xposition Yposition Zposition Zrotation Xrotation Yrotation
    JOINT LeftShoulder
    {
      OFFSET -0.000 34.693 0.000
      CHANNELS 6 Xposition Yposition Zposition Zrotation Xrotation Yrotation
      JOINT LeftArm
      {
        OFFSET 13.804 0.000 -0.000
        CHANNELS 6 Xposition Yposition Zposition Zrotation Xrotation Yrotation
        JOINT LeftForeArm
        {
          OFFSET 21.101 0.000 0.000
          CHANNELS 6 Xposition Yposition Zposition Zrotation Xrotation Yrotation
          JOINT LeftHand
          {
            OFFSET 24.070 -0.000 -0.000
            CHANNELS 6 Xposition Yposition Zposition Zrotation Xrotation Yrotation
            JOINT LeftHandThumb1
            {
            OFFSET 4.970 -0.620 3.390
            CHANNELS 6 Xposition Yposition Zposition Zrotation Xrotation Yrotation
              JOINT LeftHandThumb2
              {
              OFFSET 2.150 -0.000 0.000
              CHANNELS 6 Xposition Yposition Zposition Zrotation Xrotation Yrotation
                JOINT LeftHandThumb3
                {
                OFFSET 2.200 -0.000 0.000
                CHANNELS 6 Xposition Yposition Zposition Zrotation Xrotation Yrotation
                  JOINT LeftHandThumb4
                  {
                  OFFSET 1.700 -0.000 0.000
                  CHANNELS 6 Xposition Yposition Zposition Zrotation Xrotation Yrotation
                  }
                }
              }
            }
            JOINT LeftHandIndex1
            {
            OFFSET 8.730 0.680 2.070
            CHANNELS 6 Xposition Yposition Zposition Zrotation Xrotation Yrotation
              JOINT LeftHandIndex2
              {
              OFFSET 2.670 -0.000 0.000
              CHANNELS 6 Xposition Yposition Zposition Zrotation Xrotation Yrotation
                JOINT LeftHandIndex3
                {
                OFFSET 2.130 -0.000 0.000
                CHANNELS 6 Xposition Yposition Zposition Zrotation Xrotation Yrotation
                  JOINT LeftHandIndex4
                  {
                  OFFSET 1.800 -0.000 0.000
                  CHANNELS 6 Xposition Yposition Zposition Zrotation Xrotation Yrotation
                  }
                }
              }
            }
            JOINT LeftHandMiddle1
            {
            OFFSET 9.220 0.670 0.550
            CHANNELS 6 Xposition Yposition Zposition Zrotation Xrotation Yrotation
              JOINT LeftHandMiddle2
              {
              OFFSET 2.660 -0.000 0.000
              CHANNELS 6 Xposition Yposition Zposition Zrotation Xrotation Yrotation
                JOINT LeftHandMiddle3
                {
                OFFSET 2.280 -0.000 0.000
                CHANNELS 6 Xposition Yposition Zposition Zrotation Xrotation Yrotation
                  JOINT LeftHandMiddle4
                  {
                  OFFSET 1.500 -0.000 0.000
                  CHANNELS 6 Xposition Yposition Zposition Zrotation Xrotation Yrotation
                  }
                }
              }
            }
            JOINT LeftHandRing1
            {
            OFFSET 9.250 0.670 -1.130
            CHANNELS 6 Xposition Yposition Zposition Zrotation Xrotation Yrotation
              JOINT LeftHandRing2
              {
              OFFSET 2.470 -0.000 0.000
              CHANNELS 6 Xposition Yposition Zposition Zrotation Xrotation Yrotation
                JOINT LeftHandRing3
                {
                OFFSET 2.210 -0.000 0.000
                CHANNELS 6 Xposition Yposition Zposition Zrotation Xrotation Yrotation
                  JOINT LeftHandRing4
                  {
                  OFFSET 1.800 -0.000 0.000
                  CHANNELS 6 Xposition Yposition Zposition Zrotation Xrotation Yrotation
                  }
                }
              }
            }
            JOINT LeftHandPinky1
            {
            OFFSET 9.350 0.660 -2.720
            CHANNELS 6 Xposition Yposition Zposition Zrotation Xrotation Yrotation
              JOINT LeftHandPinky2
              {
              OFFSET 1.630 -0.000 0.000
              CHANNELS 6 Xposition Yposition Zposition Zrotation Xrotation Yrotation
                JOINT LeftHandPinky3
                {
                OFFSET 1.710 -0.000 0.000
                CHANNELS 6 Xposition Yposition Zposition Zrotation Xrotation Yrotation
                  JOINT LeftHandPinky4
                  {
                  OFFSET 1.800 -0.000 0.000
                  CHANNELS 6 Xposition Yposition Zposition Zrotation Xrotation Yrotation
                  }
                }
              }
            }
          }
        }
      }
    }
    JOINT RightShoulder
    {
      OFFSET -0.000 34.693 0.000
      CHANNELS 6 Xposition Yposition Zposition Zrotation Xrotation Yrotation
      JOINT RightArm
      {
        OFFSET -19.648 0.000 -0.000
        CHANNELS 6 Xposition Yposition Zposition Zrotation Xrotation Yrotation
        JOINT RightForeArm
        {
          OFFSET -19.535 0.000 0.000
          CHANNELS 6 Xposition Yposition Zposition Zrotation Xrotation Yrotation
          JOINT RightHand
          {
            OFFSET -23.606 0.000 -0.000
            CHANNELS 6 Xposition Yposition Zposition Zrotation Xrotation Yrotation
            JOINT RightHandThumb1
            {
            OFFSET -4.970 -0.620 3.390
            CHANNELS 6 Xposition Yposition Zposition Zrotation Xrotation Yrotation
              JOINT RightHandThumb2
              {
              OFFSET -2.150 0.000 0.000
              CHANNELS 6 Xposition Yposition Zposition Zrotation Xrotation Yrotation
                JOINT RightHandThumb3
                {
                OFFSET -2.200 0.000 0.000
                CHANNELS 6 Xposition Yposition Zposition Zrotation Xrotation Yrotation
                  JOINT RightHandThumb4
                  {
                  OFFSET -1.700 0.000 0.000
                  CHANNELS 6 Xposition Yposition Zposition Zrotation Xrotation Yrotation
                  }
                }
              }
            }
            JOINT RightHandIndex1
            {
            OFFSET -8.730 0.680 2.070
            CHANNELS 6 Xposition Yposition Zposition Zrotation Xrotation Yrotation
              JOINT RightHandIndex2
              {
              OFFSET -2.670 0.000 0.000
              CHANNELS 6 Xposition Yposition Zposition Zrotation Xrotation Yrotation
                JOINT RightHandIndex3
                {
                OFFSET -2.130 0.000 0.000
                CHANNELS 6 Xposition Yposition Zposition Zrotation Xrotation Yrotation
                  JOINT RightHandIndex4
                  {
                  OFFSET -1.800 0.000 0.000
                  CHANNELS 6 Xposition Yposition Zposition Zrotation Xrotation Yrotation
                  }
                }
              }
            }
            JOINT RightHandMiddle1
            {
            OFFSET -9.220 0.670 0.550
            CHANNELS 6 Xposition Yposition Zposition Zrotation Xrotation Yrotation
              JOINT RightHandMiddle2
              {
              OFFSET -2.660 0.000 0.000
              CHANNELS 6 Xposition Yposition Zposition Zrotation Xrotation Yrotation
                JOINT RightHandMiddle3
                {
                OFFSET -2.280 0.000 0.000
                CHANNELS 6 Xposition Yposition Zposition Zrotation Xrotation Yrotation
                  JOINT RightHandMiddle4
                  {
                  OFFSET -1.500 0.000 0.000
                  CHANNELS 6 Xposition Yposition Zposition Zrotation Xrotation Yrotation
                  }
                }
              }
            }
            JOINT RightHandRing1
            {
            OFFSET -9.250 0.670 -1.130
            CHANNELS 6 Xposition Yposition Zposition Zrotation Xrotation Yrotation
              JOINT RightHandRing2
              {
              OFFSET -2.470 0.000 0.000
              CHANNELS 6 Xposition Yposition Zposition Zrotation Xrotation Yrotation
                JOINT RightHandRing3
                {
                OFFSET -2.210 0.000 0.000
                CHANNELS 6 Xposition Yposition Zposition Zrotation Xrotation Yrotation
                  JOINT RightHandRing4
                  {
                  OFFSET -1.800 0.000 0.000
                  CHANNELS 6 Xposition Yposition Zposition Zrotation Xrotation Yrotation
                  }
                }
              }
            }
            JOINT RightHandPinky1
            {
            OFFSET -9.350 0.660 -2.720
            CHANNELS 6 Xposition Yposition Zposition Zrotation Xrotation Yrotation
              JOINT RightHandPinky2
              {
              OFFSET -1.630 0.000 0.000
              CHANNELS 6 Xposition Yposition Zposition Zrotation Xrotation Yrotation
                JOINT RightHandPinky3
                {
                OFFSET -1.710 0.000 0.000
                CHANNELS 6 Xposition Yposition Zposition Zrotation Xrotation Yrotation
                  JOINT RightHandPinky4
                  {
                  OFFSET -1.800 0.000 0.000
                  CHANNELS 6 Xposition Yposition Zposition Zrotation Xrotation Yrotation
                  }
                }
              }
            }
          }
        }
      }
    }
    JOINT Neck
    {
      OFFSET -0.000 34.693 0.000
      CHANNELS 6 Xposition Yposition Zposition Zrotation Xrotation Yrotation
      JOINT Head
      {
        OFFSET -0.000 19.788 -0.000
        CHANNELS 6 Xposition Yposition Zposition Zrotation Xrotation Yrotation
        End Site
        {
          OFFSET -0.000 0.079 -0.000
        }
      }
    }
  }
}
MOTION
Frames:	6
Frame Time:	0.0333333
-9.82635 23.4974 -260.888 -2.95555 27.8185 5.58282 6.51955 -5.02806 3.07164 -2.89895 -42.5497 0.427958 -8.9407e-06 -44.6418 -2.38419e-05 -0.873117 23.3624 4.65011e-07 2.98023e-06 -41.8468 0 1.31105 -29.0501 1.27383 -6.77691 -6.18433 3.71895 0.59959 -13.6533 1.67431 -1.49012e-06 -48.2001 2.38419e-05 6.43504 1.4417 -0.162587 -2.98023e-06 -35.3339 0 22.9949 -45.2899 25.5935 2.98023e-06 5.22606 -5.22611 -1.35288 -25.552 1.61518 -5.96046e-06 34.6935 9.53674e-05 -28.2024 9.49823e-06 3.17704 13.8663 2.38419e-05 -4.76837e-05 -35.2912 35.75 22.8473 20.5315 -1.19209e-05 4.76837e-05 -7.41892e-07 -3.5052e-06 -113.901 25.2174 3.57628e-05 -2.79397e-06 5.00512 -0.240423 -26.2815 0.0062 0.0497 0.0339 0 0 0 0 0.0215 0 0 0 0 0 0.022 0 0 0 0 0 0.017 0 0 0 0 -0.0068 0.0873 0.0207 0 0 0 0 0.0267 0 0 0 0 0 0.0213 0 0 0 0 0 0.018 0 0 0 0 -0.0067 0.0922 0.0055 0 0 0 0 0.0266 0 0 0 0 0 0.0228 0 0 0 0 0 0.015 0 0 0 0 -0.0067 0.0925 -0.0113 0 0 0 0 0.0247 0 0 0 0 0 0.0221 0 0 0 0 0 0.018 0 0 0 0 -0.0066 0.0935 -0.0272 0 0 0 0 0.0163 0 0 0 0 0 0.0171 0 0 0 0 0 0.018 0 0 0 0 -5.96046e-06 34.6935 9.53674e-05 31.7246 -5.12264e-06 -2.24802 -19.5918 8.9407e-06 -2.38419e-05 26.6524 36.5834 8.44085 -19.848 1.19209e-05 0 5.4879e-05 1.80665e-05 111.346 -25.5961 -1.19209e-05 0 -10.6316 0.0670651 -4.47901 -0.0062 0.0497 0.0339 0 0 0 0 0.0215 0 0 0 0 0 0.022 0 0 0 0 0 0.017 0 0 0 0 0.0068 0.0873 0.0207 0 0 0 0 0.0267 0 0 0 0 0 0.0213 0 0 0 0 0 0.018 0 0 0 0 0.0067 0.0922 0.0055 0 0 0 0 0.0266 0 0 0 0 0 0.0228 0 0 0 0 0 0.015 0 0 0 0 0.0067 0.0925 -0.0113 0 0 0 0 0.0247 0 0 0 0 0 0.0221 0 0 0 0 0 0.018 0 0 0 0 0.0066 0.0935 -0.0272 0 0 0 0 0.0163 0 0 0 0 0 0.0171 0 0 0 0 0 0.018 0 0 0 0 -5.96046e-06 34.6935 9.53674e-05 8.02606 2.17515 -0.306627 8.9407e-06 19.5987 2.38419e-05 1.02986e-05 -1.06722e-05 -1.28066e-06 
-9.77166 23.8992 -260.362 -2.59046 27.3712 4.88069 6.44611 -5.25756 2.93105 -3.17126 -39.6074 1.71247 5.96046e-06 -45.5633 -7.15256e-05 0.415165 19.9923 -9.08523e-07 0 -41.0048 2.38419e-05 1.27046 -30.2693 1.24464 -6.69499 -6.0319 3.88987 0.419655 -14.8372 3.27903 7.45058e-06 -48.775 -2.38419e-05 6.64013 6.20675 -0.721099 4.47035e-06 -35.5734 -4.76837e-05 22.2676 -47.3622 25.0115 3.72529e-06 5.19744 -5.19733 -1.2808 -25.3593 1.52758 -2.98023e-06 34.6935 0 -29.4652 1.09923e-05 3.07244 13.9511 -5.96046e-06 2.38419e-05 -31.6038 33.8013 16.9298 19.8924 -2.38419e-05 2.38419e-05 -1.46207e-06 -7.94387e-06 -110.857 23.9286 0 1.04308e-05 4.48255 -0.154445 -24.6189 0.0062 0.0497 0.0339 0 0 0 0 0.0215 0 0 0 0 0 0.022 0 0 0 0 0 0.017 0 0 0 0 -0.0068 0.0873 0.0207 0 0 0 0 0.0267 0 0 0 0 0 0.0213 0 0 0 0 0 0.018 0 0 0 0 -0.0067 0.0922 0.0055 0 0 0 0 0.0266 0 0 0 0 0 0.0228 0 0 0 0 0 0.015 0 0 0 0 -0.0067 0.0925 -0.0113 0 0 0 0 0.0247 0 0 0 0 0 0.0221 0 0 0 0 0 0.018 0 0 0 0 -0.0066 0.0935 -0.0272 0 0 0 0 0.0163 0 0 0 0 0 0.0171 0 0 0 0 0 0.018 0 0 0 0 -2.98023e-06 34.6935 0 31.8014 -4.26887e-06 -2.17728 -19.6822 -5.96046e-06 7.15256e-05 27.6283 37.5321 6.8167 -19.6764 0 -4.76837e-05 -1.67845e-05 -2.94959e-06 109.934 -25.6266 0 1.19209e-05 -10.323 0.0579587 -4.49687 -0.0062 0.0497 0.0339 0 0 0 0 0.0215 0 0 0 0 0 0.022 0 0 0 0 0 0.017 0 0 0 0 0.0068 0.0873 0.0207 0 0 0 0 0.0267 0 0 0 0 0 0.0213 0 0 0 0 0 0.018 0 0 0 0 0.0067 0.0922 0.0055 0 0 0 0 0.0266 0 0 0 0 0 0.0228 0 0 0 0 0 0.015 0 0 0 0 0.0067 0.0925 -0.0113 0 0 0 0 0.0247 0 0 0 0 0 0.0221 0 0 0 0 0 0.018 0 0 0 0 0.0066 0.0935 -0.0272 0 0 0 0 0.0163 0 0 0 0 0 0.0171 0 0 0 0 0 0.018 0 0 0 0 -2.98023e-06 34.6935 0 8.17997 2.52424 -0.362725 -2.98023e-06 19.3922 -4.76837e-05 1.04054e-05 -8.96462e-06 1.70755e-06 
-9.64768 24.5233 -259.69 -2.38569 26.8966 4.4104 6.384 -5.51863 2.79469 -3.49471 -36.9749 2.89143 -5.96046e-06 -46.5704 7.15256e-05 1.61232 17.1312 -8.93412e-07 5.96046e-06 -40.3443 -2.38419e-05 0.877647 -31.4608 0.855413 -6.61651 -5.95004 4.01435 0.16099 -14.3388 4.76533 -7.45058e-06 -49.4602 7.15256e-05 7.06499 7.0563 -0.872253 1.49012e-06 -35.8754 -2.38419e-05 20.8866 -48.7948 23.6221 -3.72529e-06 5.16437 -5.16443 -1.13675 -25.0704 1.3134 -2.98023e-06 34.6935 0 -31.3437 1.20596e-05 3.71036 14.1391 5.96046e-06 2.38419e-05 -28.102 32.3677 12.1992 19.6522 -5.96046e-06 0 -3.955e-06 -1.74162e-06 -110.347 23.9494 -5.96046e-06 -5.96046e-06 -1.04914 0.580345 -19.7609 0.0062 0.0497 0.0339 0 0 0 0 0.0215 0 0 0 0 0 0.022 0 0 0 0 0 0.017 0 0 0 0 -0.0068 0.0873 0.0207 0 0 0 0 0.0267 0 0 0 0 0 0.0213 0 0 0 0 0 0.018 0 0 0 0 -0.0067 0.0922 0.0055 0 0 0 0 0.0266 0 0 0 0 0 0.0228 0 0 0 0 0 0.015 0 0 0 0 -0.0067 0.0925 -0.0113 0 0 0 0 0.0247 0 0 0 0 0 0.0221 0 0 0 0 0 0.018 0 0 0 0 -0.0066 0.0935 -0.0272 0 0 0 0 0.0163 0 0 0 0 0 0.0171 0 0 0 0 0 0.018 0 0 0 0 -2.98023e-06 34.6935 0 31.5237 -3.84198e-06 -2.64372 -19.8369 5.96046e-06 2.38419e-05 29.1312 38.7784 5.67969 -19.7436 -2.38419e-05 0 4.35021e-05 6.98474e-06 108.243 -25.6486 -1.19209e-05 5.96046e-06 -9.60972 -0.268935 0.969905 -0.0062 0.0497 0.0339 0 0 0 0 0.0215 0 0 0 0 0 0.022 0 0 0 0 0 0.017 0 0 0 0 0.0068 0.0873 0.0207 0 0 0 0 0.0267 0 0 0 0 0 0.0213 0 0 0 0 0 0.018 0 0 0 0 0.0067 0.0922 0.0055 0 0 0 0 0.0266 0 0 0 0 0 0.0228 0 0 0 0 0 0.015 0 0 0 0 0.0067 0.0925 -0.0113 0 0 0 0 0.0247 0 0 0 0 0 0.0221 0 0 0 0 0 0.018 0 0 0 0 0.0066 0.0935 -0.0272 0 0 0 0 0.0163 0 0 0 0 0 0.0171 0 0 0 0 0 0.018 0 0 0 0 -2.98023e-06 34.6935 0 8.63327 2.47888 -0.376246 0 18.9974 0 1.13659e-05 -1.02453e-05 4.26887e-07 
-9.48499 24.9595 -259 -2.10178 26.6498 3.83927 6.33251 -5.72504 2.60031 -3.89931 -35.0128 4.66898 -5.96046e-06 -47.4603 2.38419e-05 2.81689 14.9741 8.83785e-07 0 -39.7544 -4.76837e-05 0.373702 -30.6054 0.378155 -6.54464 -5.85124 4.21717 -0.217319 -14.3076 6.74744 -5.96046e-06 -49.869 0 6.83027 5.22395 -0.624826 5.96046e-06 -36.7433 0 19.4837 -49.8033 22.1499 -2.23517e-06 5.15426 -5.15418 -0.982199 -24.7854 1.06969 -2.23517e-06 34.6935 -2.38419e-05 -32.7146 1.21663e-05 4.40831 14.2517 -5.96046e-06 4.76837e-05 -25.4225 31.2031 6.72852 19.6554 -2.38419e-05 -4.76837e-05 -1.4848e-05 -7.18228e-06 -108.778 23.2177 0 -8.9407e-06 -1.58562 0.446325 -16.2602 0.0062 0.0497 0.0339 0 0 0 0 0.0215 0 0 0 0 0 0.022 0 0 0 0 0 0.017 0 0 0 0 -0.0068 0.0873 0.0207 0 0 0 0 0.0267 0 0 0 0 0 0.0213 0 0 0 0 0 0.018 0 0 0 0 -0.0067 0.0922 0.0055 0 0 0 0 0.0266 0 0 0 0 0 0.0228 0 0 0 0 0 0.015 0 0 0 0 -0.0067 0.0925 -0.0113 0 0 0 0 0.0247 0 0 0 0 0 0.0221 0 0 0 0 0 0.018 0 0 0 0 -0.0066 0.0935 -0.0272 0 0 0 0 0.0163 0 0 0 0 0 0.0171 0 0 0 0 0 0.018 0 0 0 0 -2.23517e-06 34.6935 -2.38419e-05 30.8346 -3.84198e-06 -3.16116 -19.8649 -5.96046e-06 -2.38419e-05 30.8297 39.9204 4.42615 -19.7947 0 0 3.01754e-05 5.87653e-06 105.271 -25.3971 -1.19209e-05 1.19209e-05 -6.62674 -0.556302 7.53666 -0.0062 0.0497 0.0339 0 0 0 0 0.0215 0 0 0 0 0 0.022 0 0 0 0 0 0.017 0 0 0 0 0.0068 0.0873 0.0207 0 0 0 0 0.0267 0 0 0 0 0 0.0213 0 0 0 0 0 0.018 0 0 0 0 0.0067 0.0922 0.0055 0 0 0 0 0.0266 0 0 0 0 0 0.0228 0 0 0 0 0 0.015 0 0 0 0 0.0067 0.0925 -0.0113 0 0 0 0 0.0247 0 0 0 0 0 0.0221 0 0 0 0 0 0.018 0 0 0 0 0.0066 0.0935 -0.0272 0 0 0 0 0.0163 0 0 0 0 0 0.0171 0 0 0 0 0 0.018 0 0 0 0 -2.23517e-06 34.6935 -2.38419e-05 8.9532 2.10354 -0.331331 -5.96046e-06 18.7572 -4.76837e-05 7.89741e-06 -1.06722e-05 -4.26887e-07 
-9.3468 25.4277 -258.236 -2.05143 26.2946 3.85997 6.28035 -5.82004 2.53236 -4.2739 -33.0158 5.33013 -5.96046e-06 -48.331 2.38419e-05 3.38318 13.7419 8.78933e-07 8.9407e-06 -39.1401 -2.38419e-05 0.015239 -28.3285 0.0497599 -6.47325 -5.78065 4.26145 -0.490574 -14.3356 7.40692 1.49012e-05 -50.3243 2.38419e-05 7.21389 6.07835 -0.767885 -4.47035e-06 -37.0513 2.38419e-05 17.0141 -50.4871 19.4242 -1.49012e-06 5.14259 -5.14264 -0.863138 -24.4917 0.81431 -1.49012e-06 34.6935 -7.15256e-05 -33.7006 1.32335e-05 4.50669 14.4581 5.96046e-06 0 -23.7243 30.9885 2.34568 19.8713 -2.98023e-05 0 -2.768e-05 -2.46728e-06 -106.57 22.3355 1.78814e-05 -1.78814e-05 -0.235657 0.372081 -17.5796 0.0062 0.0497 0.0339 0 0 0 0 0.0215 0 0 0 0 0 0.022 0 0 0 0 0 0.017 0 0 0 0 -0.0068 0.0873 0.0207 0 0 0 0 0.0267 0 0 0 0 0 0.0213 0 0 0 0 0 0.018 0 0 0 0 -0.0067 0.0922 0.0055 0 0 0 0 0.0266 0 0 0 0 0 0.0228 0 0 0 0 0 0.015 0 0 0 0 -0.0067 0.0925 -0.0113 0 0 0 0 0.0247 0 0 0 0 0 0.0221 0 0 0 0 0 0.018 0 0 0 0 -0.0066 0.0935 -0.0272 0 0 0 0 0.0163 0 0 0 0 0 0.0171 0 0 0 0 0 0.018 0 0 0 0 -1.49012e-06 34.6935 -7.15256e-05 30.4699 -2.13443e-06 -3.30436 -19.7095 -2.98023e-06 -2.38419e-05 33.4709 40.0718 0.132909 -19.7772 0 4.76837e-05 1.70523e-05 2.06711e-06 103.824 -25.284 0 5.96046e-06 -3.78801 -0.638651 13.7779 -0.0062 0.0497 0.0339 13.4819 0 0 0 0.0215 0 0 -13.4819 0 0 0.022 0 0 -13.4819 0 0 0.017 0 0 0 0 0.0068 0.0873 0.0207 13.4819 0 0 0 0.0267 0 23.9678 0 0 0 0.0213 0 26.9638 0 0 0 0.018 0 0 0 0 0.0067 0.0922 0.0055 13.4819 0 0 0 0.0266 0 23.9678 0 0 0 0.0228 0 26.9638 0 0 0 0.015 0 0 0 0 0.0067 0.0925 -0.0113 13.4819 0 0 0 0.0247 0 23.9678 0 0 0 0.0221 0 26.9638 0 0 0 0.018 0 0 0 0 0.0066 0.0935 -0.0272 13.4819 0 0 0 0.0163 0 23.9678 0 0 0 0.0171 0 26.9638 0 0 0 0.018 0 0 0 0 -1.49012e-06 34.6935 -7.15256e-05 8.91999 2.19122 -0.343831 0 18.5348 2.38419e-05 9.47155e-06 -9.39151e-06 8.53774e-07 
-9.16734 25.9277 -257.428 -1.53871 25.7281 3.09077 6.2269 -5.9566 2.37927 -4.07351 -31.1246 6.09061 -2.98023e-06 -48.9424 2.38419e-05 2.51119 13.0219 -0.566178 -2.98023e-06 -38.8813 -4.76837e-05 0.159438 -25.6404 0.166875 -6.39568 -5.67856 4.32513 -0.430742 -18.5097 8.57362 -5.96046e-06 -50.1927 -2.38419e-05 6.38986 11.1413 -1.23966 -1.49012e-06 -37.9258 2.38419e-05 15.5626 -48.5286 17.7425 2.23517e-06 5.12283 -5.12292 -0.792371 -24.0429 0.633238 -5.96046e-06 34.6935 7.15256e-05 -34.703 1.45141e-05 4.39455 14.5737 -5.96046e-06 -2.38419e-05 -21.7029 29.2222 -3.64637 20.0949 0 -7.15256e-05 1.26924e-05 -6.50062e-06 -106.939 22.7412 -5.96046e-06 -5.96046e-06 -0.0041997 0.29627 -17.1989 0.0062 0.0497 0.0339 0 0 0 0 0.0215 0 0 0 0 0 0.022 0 0 0 0 0 0.017 0 0 0 0 -0.0068 0.0873 0.0207 0 0 0 0 0.0267 0 0 0 0 0 0.0213 0 0 0 0 0 0.018 0 0 0 0 -0.0067 0.0922 0.0055 0 0 0 0 0.0266 0 0 0 0 0 0.0228 0 0 0 0 0 0.015 0 0 0 0 -0.0067 0.0925 -0.0113 0 0 0 0 0.0247 0 0 0 0 0 0.0221 0 0 0 0 0 0.018 0 0 0 0 -0.0066 0.0935 -0.0272 0 0 0 0 0.0163 0 0 0 0 0 0.0171 0 0 0 0 0 0.018 0 0 0 0 -5.96046e-06 34.6935 7.15256e-05 30.2974 -1.92099e-06 -3.25822 -19.6478 1.19209e-05 -9.53674e-05 35.3509 40.2371 -3.58282 -19.7369 1.19209e-05 2.38419e-05 2.5878e-05 1.34371e-05 102.257 -25.2058 0 0 -0.412517 -0.51828 20.6008 -0.0062 0.0497 0.0339 23.9468 0 0 0 0.0215 0 0 -23.9468 0 0 0.022 0 0 -23.9468 0 0 0.017 0 0 0 0 0.0068 0.0873 0.0207 23.9468 0 0 0 0.0267 0 42.5722 0 0 0 0.0213 0 47.8937 0 0 0 0.018 0 0 0 0 0.0067 0.0922 0.0055 23.9468 0 0 0 0.0266 0 42.5722 0 0 0 0.0228 0 47.8937 0 0 0 0.015 0 0 0 0 0.0067 0.0925 -0.0113 23.9468 0 0 0 0.0247 0 42.5722 0 0 0 0.0221 0 47.8937 0 0 0 0.018 0 0 0 0 0.0066 0.0935 -0.0272 23.9468 0 0 0 0.0163 0 42.5722 0 0 0 0.0171 0 47.8937 0 0 0 0.018 0 0 0 0 -5.96046e-06 34.6935 7.15256e-05 8.73454 2.50412 -0.3846 1.49012e-06 18.2874 -4.76837e-05 8.67114e-06 -9.39151e-06 2.13443e-07 
